<svg width="12" height="12" viewBox="0 0 12 12" fill="none" xmlns="http://www.w3.org/2000/svg">
<path d="M8.42802 2.04267L2.33202 8.13867C2.09919 8.37025 1.91461 8.6457 1.78896 8.94909C1.66331 9.25249 1.59909 9.57779 1.60002 9.90617V10.5777C1.60002 10.7103 1.65269 10.8375 1.74646 10.9312C1.84023 11.025 1.96741 11.0777 2.10002 11.0777H2.77152C3.0999 11.0786 3.4252 11.0144 3.72859 10.8887C4.03199 10.7631 4.30744 10.5785 4.53902 10.3457L10.635 4.24967C10.9272 3.95676 11.0913 3.55991 11.0913 3.14617C11.0913 2.73244 10.9272 2.33559 10.635 2.04267C10.3379 1.75862 9.9426 1.6001 9.53152 1.6001C9.12043 1.6001 8.72518 1.75862 8.42802 2.04267ZM9.92802 3.54267L3.83202 9.63867C3.55008 9.91889 3.16902 10.0766 2.77152 10.0777H2.60002V9.90617C2.60106 9.50867 2.7588 9.12761 3.03902 8.84567L9.13502 2.74967C9.24181 2.64765 9.38382 2.59072 9.53152 2.59072C9.67921 2.59072 9.82122 2.64765 9.92802 2.74967C10.033 2.85493 10.0919 2.99752 10.0919 3.14617C10.0919 3.29483 10.033 3.43742 9.92802 3.54267Z" fill="#212529"/>
</svg>
